<?xml version="1.0" encoding="UTF-8" standalone="no"?>
<!-- Created with Inkscape (http://www.inkscape.org/) -->

<svg
   width="105.2704mm"
   height="105.2704mm"
   viewBox="0 0 105.2704 105.2704"
   version="1.1"
   id="svg1"
   inkscape:version="1.3.2 (091e20e, 2023-11-25, custom)"
   sodipodi:docname="drawing-2.svg"
   xml:space="preserve"
   xmlns:inkscape="http://www.inkscape.org/namespaces/inkscape"
   xmlns:sodipodi="http://sodipodi.sourceforge.net/DTD/sodipodi-0.dtd"
   xmlns="http://www.w3.org/2000/svg"
   xmlns:svg="http://www.w3.org/2000/svg"><sodipodi:namedview
     id="namedview1"
     pagecolor="#505050"
     bordercolor="#eeeeee"
     borderopacity="1"
     inkscape:showpageshadow="0"
     inkscape:pageopacity="0"
     inkscape:pagecheckerboard="0"
     inkscape:deskcolor="#505050"
     inkscape:document-units="mm"
     inkscape:zoom="2.0686841"
     inkscape:cx="287.62245"
     inkscape:cy="186.83374"
     inkscape:window-width="1920"
     inkscape:window-height="1017"
     inkscape:window-x="-8"
     inkscape:window-y="-1"
     inkscape:window-maximized="1"
     inkscape:current-layer="layer2" /><defs
     id="defs1"><inkscape:path-effect
       effect="fillet_chamfer"
       id="path-effect2"
       is_visible="true"
       lpeversion="1"
       nodesatellites_param="F,0,0,1,0,0,0,1 @ F,0,0,1,0,1.3992643,0,1 @ F,0,0,1,0,0,0,1 @ F,0,0,1,0,1.6569144,0,1 @ F,0,0,1,0,0,0,1 @ F,0,0,1,0,1.6743821,0,1 @ F,0,0,1,0,0,0,1 @ F,0,0,1,0,1.8538161,0,1 @ F,0,0,1,0,0,0,1 @ F,0,0,1,0,2.0574993,0,1 @ F,0,0,1,0,0,0,1 @ F,0,0,1,0,2.5716767,0,1"
       radius="0"
       unit="px"
       method="auto"
       mode="F"
       chamfer_steps="1"
       flexible="false"
       use_knot_distance="true"
       apply_no_radius="true"
       apply_with_radius="true"
       only_selected="false"
       hide_knots="false" /></defs><g
     inkscape:groupmode="layer"
     id="layer2"
     inkscape:label="Layer 2"><path
       d="m 53.718168,28.289229 c -14.359651,-0.100097 -27.139477,0.632611 -30.07465,1.807642 -1.06361,0.425792 -2.199339,1.211431 -3.033407,2.099097 -1.232784,1.312002 -1.892362,2.658315 -2.270662,4.633825 -1.565072,8.172944 -1.574141,23.024994 -0.0186,30.775383 0.509022,2.536177 1.045373,3.603584 2.590539,5.159375 0.876743,0.882774 1.13487,1.0711 2.138371,1.557011 0.678977,0.328771 1.474924,0.619772 1.964221,0.718302 3.094171,0.623039 9.154995,1.033758 19.412252,1.315682 2.670593,0.0734 18.708655,-0.03741 21.002335,-0.145211 6.811159,-0.320104 10.782293,-0.69559 12.930994,-1.222147 2.729107,-0.668795 5.085816,-2.804151 5.990332,-5.427576 0.452559,-1.312592 1.017694,-5.004386 1.375627,-8.986532 0.239035,-2.659414 0.338979,-11.216101 0.165364,-14.163993 -0.232094,-3.940721 -0.542946,-6.572979 -1.100708,-9.321395 -0.515709,-2.541218 -1.050221,-3.606735 -2.581237,-5.142838 -1.398227,-1.40287 -2.875575,-2.135622 -5.082378,-2.52181 -2.664944,-0.466365 -8.906468,-0.844243 -17.18138,-1.03973 -2.091756,-0.04942 -4.175631,-0.08078 -6.22701,-0.09509 z m 11.097514,12.123808 a 1.1915316,1.1915316 0 0 1 1.150834,0.307992 l 0.496094,0.495577 c 0.154726,0.1546 0.303283,0.304877 0.441833,0.445967 0.509417,0.518754 0.488932,1.393522 -0.02325,1.913579 -1.62757,1.65258 -5.23977,5.282004 -9.408211,9.450069 l -9.159131,9.158614 a 1.6522832,1.6522832 0 0 1 -2.336808,0 L 41.625366,57.832646 36.74091,52.948189 a 0.89790457,0.89790457 0 0 1 5.17e-4,-1.270723 l 0.718819,-0.717269 0.601513,-0.599963 a 1.0658988,1.0658988 0 0 1 1.506368,0.001 l 3.361552,3.360518 c 1.392528,1.39241 2.639509,2.629291 3.400826,3.374472 0.422704,0.413743 1.124398,0.407952 1.54771,-0.0088 1.411111,-1.389196 4.599514,-4.561857 8.267712,-8.229989 l 8.135937,-8.135938 a 1.1915316,1.1915316 0 0 1 0.533818,-0.308508 z"
       style="fill:#ff0000;stroke-width:0.414515"
       id="path3" /></g></svg>
